<svg width="40" height="40" viewBox="0 0 40 40" fill="none" xmlns="http://www.w3.org/2000/svg">
	<rect x="2" y="2" width="4" height="4" fill="#111111"/>
	<rect x="2" y="10" width="4" height="4" fill="#111111"/>
	<rect x="2" y="18" width="4" height="4" fill="#111111"/>
	<rect x="2" y="26" width="4" height="4" fill="#111111"/>
	<rect x="2" y="34" width="4" height="4" fill="#111111"/>
	<rect x="10" y="2" width="4" height="4" fill="#111111"/>
	<rect x="10" y="10" width="4" height="4" fill="#111111"/>
	<rect x="10" y="18" width="4" height="4" fill="#111111"/>
	<rect x="10" y="26" width="4" height="4" fill="#111111"/>
	<rect x="10" y="34" width="4" height="4" fill="#111111"/>
	<rect x="18" y="2" width="4" height="4" fill="#111111"/>
	<rect x="18" y="10" width="4" height="4" fill="#111111"/>
	<rect x="18" y="18" width="4" height="4" fill="#111111"/>
	<rect x="18" y="26" width="4" height="4" fill="#111111"/>
	<rect x="18" y="34" width="4" height="4" fill="#111111"/>
	<rect x="26" y="2" width="4" height="4" fill="#111111"/>
	<rect x="26" y="10" width="4" height="4" fill="#111111"/>
	<rect x="26" y="18" width="4" height="4" fill="#111111"/>
	<rect x="26" y="26" width="4" height="4" fill="#111111"/>
	<rect x="26" y="34" width="4" height="4" fill="#111111"/>
	<rect x="34" y="2" width="4" height="4" fill="#111111"/>
	<rect x="34" y="10" width="4" height="4" fill="#111111"/>
	<rect x="34" y="18" width="4" height="4" fill="#111111"/>
	<rect x="34" y="26" width="4" height="4" fill="#111111"/>
	<rect x="34" y="34" width="4" height="4" fill="#111111"/>
</svg>
