<svg width="40" height="40" viewBox="0 0 40 40" fill="none" xmlns="http://www.w3.org/2000/svg">
<g clip-path="url(#clip0_402_161)">
<rect x="24" width="4" height="4" fill="#111111"/>
<rect y="24" width="4" height="4" fill="#111111"/>
<rect width="4" height="4" fill="#111111"/>
<rect x="16" y="16" width="4" height="4" fill="#111111"/>
<rect x="28" y="4" width="4" height="4" fill="#111111"/>
<rect x="4" y="28" width="4" height="4" fill="#111111"/>
<rect x="4" y="4" width="4" height="4" fill="#111111"/>
<rect x="20" y="20" width="4" height="4" fill="#111111"/>
<rect x="32" y="8" width="4" height="4" fill="#111111"/>
<rect x="8" y="32" width="4" height="4" fill="#111111"/>
<rect x="8" y="8" width="4" height="4" fill="#111111"/>
<rect x="24" y="24" width="4" height="4" fill="#111111"/>
<rect x="36" y="12" width="4" height="4" fill="#111111"/>
<rect x="12" y="36" width="4" height="4" fill="#111111"/>
<rect x="12" y="12" width="4" height="4" fill="#111111"/>
<rect x="28" y="28" width="4" height="4" fill="#111111"/>
<rect x="32" y="32" width="4" height="4" fill="#111111"/>
<rect x="36" y="36" width="4" height="4" fill="#111111"/>
</g>
<defs>
<clipPath id="clip0_402_161">
<rect width="40" height="40" fill="white"/>
</clipPath>
</defs>
</svg>
